<?xml version="1.0" standalone="no"?><!DOCTYPE svg PUBLIC "-//W3C//DTD SVG 1.1//EN" "http://www.w3.org/Graphics/SVG/1.1/DTD/svg11.dtd"><svg t="1546910444464" class="icon" style="" viewBox="0 0 1024 1024" version="1.1" xmlns="http://www.w3.org/2000/svg" p-id="9095" xmlns:xlink="http://www.w3.org/1999/xlink" width="200" height="200"><defs><style type="text/css"></style></defs><path d="M492.343 777.511c-67.093 32.018-144.129 51.939-227.552 32.27-83.424-19.678-142.626-73.023-132.453-171.512 10.192-98.496 115.478-132.461 202.07-132.461 86.622 0 250.938 56.122 250.938 56.122s13.807-30.937 27.222-66.307c13.405-35.365 17.21-63.785 17.21-63.785H279.869v-35.067h169.995v-67.087l-211.925 1.526v-44.218h211.925v-100.63h111.304v100.629H788.35v44.218l-227.181 1.524v62.511l187.584 1.526s-3.391 35.067-27.17 98.852c-23.755 63.783-46.061 96.312-46.061 96.312L960 685.279V243.2C960 144.231 879.769 64 780.8 64H243.2C144.231 64 64 144.231 64 243.2v537.6C64 879.769 144.231 960 243.2 960h537.6c82.487 0 151.773-55.806 172.624-131.668L625.21 672.744s-65.782 72.748-132.867 104.767z" fill="#108EE9" p-id="9096"></path><path d="M297.978 559.871c-104.456 6.649-129.974 52.605-129.974 94.891s25.792 101.073 148.548 101.073c122.727 0 226.909-123.77 226.909-123.77s-141.057-78.842-245.483-72.194z" fill="#108EE9" p-id="9097"></path></svg>