<?xml version="1.0" standalone="no"?><!DOCTYPE svg PUBLIC "-//W3C//DTD SVG 1.1//EN" "http://www.w3.org/Graphics/SVG/1.1/DTD/svg11.dtd"><svg t="1547793607713" class="icon" style="" viewBox="0 0 1026 1024" version="1.1" xmlns="http://www.w3.org/2000/svg" p-id="1901" xmlns:xlink="http://www.w3.org/1999/xlink" width="200.390625" height="200"><defs><style type="text/css"></style></defs><path d="M417.672 711.354c-0.003 0-0.007 0-0.007 0-13.573 0-24.576 11.002-24.576 24.576 0 0.004 0 0.007 0 0.007v62.608c-122.366-51.397-196.97-166.711-196.97-308.352 0-131.266 87.632-250.438 218.088-296.527 9.638-3.481 16.403-12.549 16.403-23.197 0-1.462-0.127-2.893-0.372-4.283-2.046-11.524-12.109-20.274-24.218-20.279h-146.699c-13.571 0-24.583 11.013-24.583 24.583s11.013 24.583 24.583 24.583h45.451c-97.195 67.891-157.814 177.204-157.814 295.121 0 175.906 100.933 316.487 263.441 366.902 2.182 0.7 4.688 1.104 7.292 1.105-0.005 0 0.011 0 0.027 0 5.473 0 10.525-1.8 14.597-4.84 6.031-4.474 9.939-11.645 9.939-19.729 0-0.007 0-0.009 0-0.016v-97.686c0-0.003 0-0.007 0-0.007 0-13.568-11.001-24.568-24.568-24.568-0.005 0-0.007 0-0.011 0zM761.274 809.185h-44.565c92.893-62.341 167.868-164.867 167.868-295.125 0-175.906-100.933-316.486-263.441-366.902-2.181-0.701-4.688-1.106-7.29-1.106-13.568 0-24.568 11.001-24.568 24.568 0 0.006 0 0.007 0 0.013v97.687c0 13.571 10.987 24.583 24.583 24.583s24.583-11.013 24.583-24.583v-62.612c122.366 51.398 196.97 166.711 196.97 308.352 0 148.742-115.386 256.115-229.741 296.553-9.623 3.466-16.381 12.518-16.381 23.148 0 1.47 0.129 2.91 0.376 4.308 2.027 11.524 12.086 20.278 24.191 20.279h147.414c0.007 0 0.015 0 0.022 0 13.565 0 24.561-10.996 24.561-24.561 0-0.007 0-0.017 0-0.022 0-0.006 0-0.010 0-0.019 0-13.565-10.996-24.561-24.561-24.561-0.007 0-0.017 0-0.023 0z" fill="#90c0ef" p-id="1902"></path></svg>