<?xml version="1.0" standalone="no"?><!DOCTYPE svg PUBLIC "-//W3C//DTD SVG 1.1//EN" "http://www.w3.org/Graphics/SVG/1.1/DTD/svg11.dtd"><svg t="1546686072409" class="icon" style="" viewBox="0 0 1024 1024" version="1.1" xmlns="http://www.w3.org/2000/svg" p-id="16915" xmlns:xlink="http://www.w3.org/1999/xlink" width="200" height="200"><defs><style type="text/css"></style></defs><path d="M881.034 222.688h-32.343c16.401-27.809 23.599-54.335 21.299-78.938-1.908-20.592-11.668-50.043-47.429-73.514-29.65-19.505-67.779-24.289-110.082-13.722-68.598 17.223-149.788 76.436-203.169 147.995-53.414-71.557-134.538-130.771-203.135-147.995-42.337-10.637-80.499-5.819-110.146 13.722-35.731 23.471-45.493 52.922-47.399 73.514-2.3 24.605 4.832 51.129 21.299 78.938h-32.343c-48.974 0-88.83 39.886-88.83 88.897v114.501c0 38.77 25.571 73.035 62.567 84.542-3.516 9.729-5.357 19.786-5.357 29.977v343.521c0 48.977 39.902 88.88 88.88 88.88h629.030c48.975 0 88.814-39.902 88.814-88.88v-343.522c0-10.256-1.773-20.346-5.291-30.011 36.942-11.571 62.452-45.837 62.452-84.509v-114.47c-0.001-49.008-39.839-88.927-88.816-88.927M823.872 909.7h-282.943v-394.701h282.944c14.101 0 25.537 11.503 25.537 25.605v343.521c-0.001 14.102-11.437 25.573-25.538 25.573M575.772 222.688c44.999-51.904 104.063-92.692 152.023-104.724 24.914-6.244 45.293-4.535 60.052 5.195 15.681 10.303 18.47 19.489 19.098 26.427 2.495 25.44-24.785 59.739-37.669 73.102h-193.503zM906.54 311.616v114.47c0 14.101-11.405 25.57-25.507 25.57h-340.103v-165.63h340.103c14.1 0 25.507 11.489 25.507 25.588M477.654 514.999v394.701h-282.812c-14.135 0-25.575-11.472-25.575-25.573v-343.521c0-14.101 11.439-25.605 25.575-25.605h282.812zM211.673 149.585c0.622-6.939 3.451-16.126 19.066-26.427 14.657-9.73 35.037-11.523 60.086-5.195 47.694 11.964 106.694 52.756 151.791 104.724h-193.341c-11.537-11.685-40.134-47.053-37.602-73.102M112.010 311.616c0-14.098 11.439-25.588 25.571-25.588h340.071v165.63h-340.071c-14.132 0-25.571-11.469-25.571-25.57v-114.47z" p-id="16916" fill="#707070"></path></svg>