<?xml version="1.0" standalone="no"?><!DOCTYPE svg PUBLIC "-//W3C//DTD SVG 1.1//EN" "http://www.w3.org/Graphics/SVG/1.1/DTD/svg11.dtd"><svg t="1546686115784" class="icon" style="" viewBox="0 0 1024 1024" version="1.1" xmlns="http://www.w3.org/2000/svg" p-id="19663" xmlns:xlink="http://www.w3.org/1999/xlink" width="200" height="200"><defs><style type="text/css"></style></defs><path d="M944.128 860.16H79.872C49.664 860.16 25.6 836.096 25.6 806.4v-160.768c0-14.848 12.288-26.624 27.136-26.624 0-1.024-0.512-2.56-0.512-3.584 47.104-11.776 81.92-53.248 81.92-103.424s-34.816-91.648-81.92-103.424c0-1.024 0.512-2.048 0.512-3.584-14.848 0-27.136-11.776-27.136-26.624V217.6C25.6 187.904 49.664 163.84 79.872 163.84h864.768c29.696 0 54.272 24.064 54.272 53.76v160.768c0 14.848-12.288 26.624-27.136 26.624 0 1.024 0.512 2.56 0.512 3.584-47.104 11.776-81.92 53.248-81.92 103.424s34.816 91.648 81.92 103.424c0 1.024-0.512 2.048-0.512 3.584 14.848 0 27.136 11.776 27.136 26.624v160.768c-0.512 29.696-24.576 53.76-54.784 53.76z m0-196.608c-62.976-22.016-108.032-81.408-108.032-151.552s45.056-129.024 108.032-151.552V244.224c0-14.848-12.288-26.624-27.136-26.624H106.496c-14.848 0-27.136 11.776-27.136 26.624v116.224c62.976 22.016 108.032 81.408 108.032 151.552s-45.056 129.024-108.032 151.552v116.224c0 14.848 12.288 26.624 27.136 26.624h810.496c14.848 0 27.136-11.776 27.136-26.624v-116.224z m-310.784-44.544h-94.72V686.08c0 7.168-6.144 13.312-13.312 13.312h-27.136c-7.68 0-13.312-6.144-13.312-13.312v-67.072H390.656c-7.68 0-13.312-6.144-13.312-13.312v-26.624c0-7.168 6.144-13.312 13.312-13.312h94.72V512H390.656c-7.68 0-13.312-6.144-13.312-13.312v-26.624c0-7.168 6.144-13.312 13.312-13.312h74.24L381.44 368.128c-4.608-5.12-4.608-13.312 0-18.432l17.408-18.432c4.608-5.12 12.288-5.12 17.408 0l95.232 103.424 96.256-104.448c4.608-5.12 12.288-5.12 17.408 0l17.408 18.944c4.608 5.12 4.608 13.824 0 18.944L558.08 458.24h75.264c7.68 0 13.312 6.144 13.312 13.312v26.624c0 7.168-6.144 13.312-13.312 13.312h-94.72v53.76h94.72c7.68 0 13.312 6.144 13.312 13.312v26.624c0.512 8.192-5.632 13.824-13.312 13.824z" p-id="19664" fill="#707070"></path></svg>