<?xml version="1.0" standalone="no"?><!DOCTYPE svg PUBLIC "-//W3C//DTD SVG 1.1//EN" "http://www.w3.org/Graphics/SVG/1.1/DTD/svg11.dtd"><svg t="1546912860643" class="icon" style="" viewBox="0 0 1024 1024" version="1.1" xmlns="http://www.w3.org/2000/svg" p-id="11370" xmlns:xlink="http://www.w3.org/1999/xlink" width="200" height="200"><defs><style type="text/css"></style></defs><path d="M931.333689 689.157689C908.407467 743.3728 875.582578 792.0128 833.826133 833.826133 792.0128 875.582578 743.3728 908.407467 689.157689 931.333689 633.008356 955.056356 573.445689 967.1168 512.005689 967.1168 450.565689 967.1168 390.946133 955.056356 334.853689 931.333689 280.638578 908.407467 231.998578 875.582578 190.185244 833.826133 148.371911 792.0128 115.603911 743.3728 92.677689 689.157689 68.898133 633.008356 56.894578 573.445689 56.894578 512.005689 56.894578 450.565689 68.898133 390.946133 92.677689 334.853689 115.603911 280.638578 148.371911 231.998578 190.185244 190.185244 231.998578 148.4288 280.638578 115.603911 334.853689 92.677689 390.946133 68.898133 450.565689 56.894578 512.005689 56.894578 573.445689 56.894578 633.008356 68.898133 689.157689 92.677689 743.3728 115.603911 792.0128 148.4288 833.826133 190.185244 875.582578 231.998578 908.407467 280.638578 931.333689 334.853689 955.056356 390.946133 967.1168 450.565689 967.1168 512.005689 967.1168 573.445689 955.056356 633.008356 931.333689 689.157689M983.728356 312.667022C957.957689 251.739022 920.979911 196.955022 874.046578 149.9648 829.787022 105.705244 778.359467 70.718578 721.584356 45.175467 718.114133 43.639467 714.814578 41.762133 711.344356 40.283022 648.1408 13.545244 581.011911 0.005689 512.005689 0.005689 442.999467 0.005689 375.813689 13.545244 312.667022 40.283022 309.1968 41.762133 305.897244 43.639467 302.427022 45.175467 245.651911 70.718578 194.224356 105.705244 149.9648 149.9648 102.974578 196.898133 66.053689 251.739022 40.283022 312.667022 13.545244 375.813689 0.005689 442.999467 0.005689 512.005689 0.005689 581.011911 13.545244 648.1408 40.283022 711.344356 66.053689 772.272356 102.974578 827.056356 149.9648 874.046578 196.898133 920.979911 251.739022 957.957689 312.667022 983.728356 373.879467 1009.6128 438.903467 1022.867911 505.691022 1023.664356 507.795911 1023.721244 509.843911 1024.005689 512.005689 1024.005689 514.110578 1024.005689 516.215467 1023.721244 518.320356 1023.664356 585.107911 1022.867911 650.131911 1009.6128 711.344356 983.728356 772.272356 957.957689 827.056356 920.979911 874.046578 874.046578 920.979911 827.056356 957.957689 772.272356 983.728356 711.344356 1010.466133 648.1408 1024.005689 581.011911 1024.005689 512.005689 1024.005689 442.999467 1010.466133 375.813689 983.728356 312.667022ZM680.214756 455.668622C715.201422 455.668622 743.588978 427.451733 743.588978 392.635733 743.588978 357.876622 715.201422 329.659733 680.214756 329.659733 645.228089 329.659733 616.840533 357.876622 616.840533 392.635733 616.840533 427.451733 645.228089 455.668622 680.214756 455.668622ZM108.726044 511.687111C108.726044 522.382222 113.163378 532.394667 120.843378 540.928L124.427378 533.76 161.860267 459.008C130.685156 467.484444 108.726044 487.850667 108.726044 511.687111ZM889.4464 489.602844 852.0704 564.354844C883.188622 555.8784 905.147733 535.512178 905.147733 511.675733 905.147733 500.980622 900.7104 490.968178 893.0304 482.434844L889.4464 489.602844ZM732.637867 622.119822C722.2272 613.700267 707.549867 616.032711 699.869867 627.410489 650.319644 700.114489 570.106311 715.360711 511.567644 715.360711 453.028978 715.360711 372.815644 700.114489 323.322311 627.410489 318.714311 620.640711 311.660089 617.056711 304.492089 617.056711 299.599644 617.056711 294.7072 618.706489 290.497422 622.119822 280.143644 630.539378 277.981867 646.582044 285.718756 657.902933 310.522311 694.4256 343.688533 722.301156 384.250311 740.790044 421.740089 757.856711 464.577422 766.560711 511.567644 766.560711 558.614756 766.560711 601.452089 757.856711 638.884978 740.790044 679.446756 722.301156 712.612978 694.4256 737.473422 657.902933 745.210311 646.582044 743.048533 630.539378 732.637867 622.119822ZM734.503822 511.687111C734.503822 522.382222 738.941156 532.394667 746.621156 540.928L750.205156 533.76 787.638044 459.008C756.462933 467.484444 734.503822 487.850667 734.503822 511.687111ZM243.911111 465.516089C230.314667 458.973867 213.703111 455.048533 195.726222 454.820978L149.873778 546.468978 144.184889 557.846756C157.781333 564.388978 174.392889 568.314311 192.369778 568.541867L238.222222 476.893867 243.911111 465.516089ZM869.688889 465.516089C856.092444 458.973867 839.480889 455.048533 821.504 454.820978L775.651556 546.468978 769.962667 557.846756C783.559111 564.388978 800.170667 568.314311 818.147556 568.541867L864 476.893867 869.688889 465.516089ZM263.668622 489.602844 226.292622 564.354844C257.410844 555.8784 279.369956 535.512178 279.369956 511.675733 279.369956 500.980622 274.932622 490.968178 267.252622 482.434844L263.668622 489.602844ZM342.784 455.662933C377.770667 455.662933 406.158222 427.446044 406.158222 392.630044 406.158222 357.870933 377.770667 329.654044 342.784 329.654044 307.797333 329.654044 279.409778 357.870933 279.409778 392.630044 279.409778 427.446044 307.797333 455.662933 342.784 455.662933Z" p-id="11371" fill="#f4ea2a"></path></svg>