<?xml version="1.0" standalone="no"?><!DOCTYPE svg PUBLIC "-//W3C//DTD SVG 1.1//EN" "http://www.w3.org/Graphics/SVG/1.1/DTD/svg11.dtd"><svg t="1546862970724" class="icon" style="" viewBox="0 0 1024 1024" version="1.1" xmlns="http://www.w3.org/2000/svg" p-id="8153" xmlns:xlink="http://www.w3.org/1999/xlink" width="200" height="200"><defs><style type="text/css"></style></defs><path d="M959.995 377.6C921.598 160.004 735.999 0.006 512.004 0.006c-224.004 0-409.596 166.399-448 377.593C25.605 409.601 0.006 467.203 0.006 524.801c0 76.799 44.799 166.398 115.199 166.398 63.997 0 63.997-70.398 63.997-166.398 0-89.599 0-159.999-44.797-166.4C172.801 185.604 326.404 57.604 512.004 57.604c185.592 0 339.194 128 377.592 294.401-44.799 12.798-44.799 76.796-44.799 166.394 0 63.422 0 107.986 12.451 139.923 0.114 0.293 0.41 0.569 0.346 0.876C821.333 831 716.8 902.398 614.398 928c-19.198-25.602-57.597-44.799-102.395-44.799-64.006 0-115.202 32-115.202 70.398 0 38.404 51.196 70.4 115.202 70.4 63.997 0 115.197-31.996 115.197-70.4C729.598 928 853.333 839.667 876.798 678.396c-0.04 0.275 0.399 0.388 0.608 0.572 6.575 5.83 18.984 5.83 31.389 5.83 70.399 0 115.199-89.6 115.199-166.4 0-51.195-25.6-108.797-63.999-140.798z m0 0" fill="#90c0ef" p-id="8154"></path></svg>