<?xml version="1.0" standalone="no"?><!DOCTYPE svg PUBLIC "-//W3C//DTD SVG 1.1//EN" "http://www.w3.org/Graphics/SVG/1.1/DTD/svg11.dtd"><svg t="1546847923200" class="icon" style="" viewBox="0 0 1024 1024" version="1.1" xmlns="http://www.w3.org/2000/svg" p-id="3217" xmlns:xlink="http://www.w3.org/1999/xlink" width="200" height="200"><defs><style type="text/css"></style></defs><path d="M31.99963 671.904105c17.699794 0 31.999627-14.299833 31.999627-31.999626v-66.799221c0-17.699794-14.299833-31.999627-31.999627-31.999627s-31.999627 14.299833-31.999627 31.999627v66.799221c0 17.699794 14.299833 31.999627 31.999627 31.999626z" fill="#ffffff" p-id="3218"></path><path d="M1005.688277 962.800714c-0.099999-0.099999-0.199998-0.099999-0.399995-0.199998s-0.399995-0.199998-0.699992-0.299997c-0.699992-0.299997-1.499983-0.599993-2.199975-0.79999-19.199776-6.499924-73.899138-32.499621-73.899138-65.499237 0-13.69984 9.799886-21.599748 33.899605-37.69956 26.199695-17.499796 61.999277-41.499516 61.999277-90.298947 0-49.599422-36.099579-73.599142-62.499271-91.098938-23.799722-15.799816-33.399611-23.499726-33.399611-36.89957 0-14.199834 9.799886-22.099742 33.999604-37.999556 26.199695-17.299798 61.999277-40.899523 61.999277-89.898952 0-49.099427-35.99958-73.099148-62.199275-90.498945-23.99972-15.999813-33.799606-23.799722-33.799606-37.499563 0-33.099614 54.599363-59.19931 73.599142-65.699234 14.899826-4.999942 23.899721-19.999767 21.39975-35.499586s-15.899815-26.799688-31.599631-26.799687H932.289133l-145.898299-34.699596L400.295336 4.111892c-10.899873-6.199928-24.499714-5.299938-34.599597 2.099976L247.497118 92.910857l-113.498677-26.999686C117.79863 62.011217 101.298822 71.21111 96.198882 87.110924L40.999525 256.008955h-8.999895c-17.699794 0-31.999627 14.299833-31.999627 31.999627v189.097795c0 17.699794 14.299833 31.999627 31.999627 31.999627s31.999627-14.299833 31.999627-31.999627V322.008185c3.699957-0.099999 7.299915-0.699992 10.599877-1.999976h813.390515c-18.599783 23.599725-23.499726 46.499458-23.499726 63.999253 0 49.299425 35.99958 73.299145 62.399273 90.798942 23.899721 15.899815 33.699607 23.699724 33.699607 37.199566 0 12.699852-7.499913 19.499773-33.299612 36.499574-26.499691 17.499796-62.699269 41.499516-62.699269 91.498933 0 49.099427 35.899581 72.89915 61.999277 90.198949 24.099719 15.999813 33.799606 23.799722 33.799606 37.799559 0 13.299845-9.699887 21.099754-33.599608 37.099567-26.299693 17.599795-62.299274 41.699514-62.299274 90.89894 0 17.499796 4.799944 40.399529 23.499726 63.999254h-823.990392V747.103229c0-17.699794-14.299833-31.999627-31.999627-31.999627s-31.999627 14.299833-31.999627 31.999627V992.000373c0 17.699794 14.299833 31.999627 31.999627 31.999627h960.5888c17.699794 0 31.999627-14.299833 31.999627-31.999627 0-12.999848-7.799909-24.199718-18.89978-29.199659zM386.895492 70.011124l173.097982 97.298865-230.797309-54.999359L386.895492 70.011124z m-239.097212 64.999242l508.194075 120.998589H108.298741l39.499539-120.998589z" fill="#ffffff" p-id="3219"></path><path d="M192.597758 672.804095c-17.699794 0-31.999627 14.299833-31.999627 31.999627s14.299833 31.999627 31.999627 31.999627h127.998507v95.99888c0 17.699794 14.299833 31.999627 31.999627 31.999627s31.999627-14.299833 31.999627-31.999627v-95.99888h127.998508c17.699794 0 31.999627-14.299833 31.999626-31.999627s-14.299833-31.999627-31.999626-31.999627h-127.998508v-63.999254h127.998508c17.699794 0 31.999627-14.299833 31.999626-31.999627s-14.299833-31.999627-31.999626-31.999627h-82.699036l73.399144-73.399144c12.499854-12.499854 12.499854-32.799618 0-45.299471s-32.799618-12.499854-45.299472 0L352.595892 531.505743 246.297132 424.606989c-12.499854-12.499854-32.699619-12.599853-45.299472-0.099999-12.499854 12.499854-12.599853 32.699619-0.099999 45.299472l74.699129 75.099124h-82.999032c-17.699794 0-31.999627 14.299833-31.999627 31.999627s14.299833 31.999627 31.999627 31.999627h127.998507v63.999254h-127.998507zM672.392163 464.306526c17.599795 0 31.999627-14.399832 31.999627-31.999627v-63.999254c0-17.599795-14.399832-31.999627-31.999627-31.999626s-31.999627 14.399832-31.999627 31.999626v63.999254c0 17.599795 14.399832 31.999627 31.999627 31.999627zM640.392536 592.205035c0 17.599795 14.399832 31.999627 31.999627 31.999627s31.999627-14.399832 31.999627-31.999627v-63.999254c0-17.599795-14.399832-31.999627-31.999627-31.999627s-31.999627 14.399832-31.999627 31.999627v63.999254zM640.392536 752.003172c0 17.599795 14.399832 31.999627 31.999627 31.999626s31.999627-14.399832 31.999627-31.999626v-63.999254c0-17.599795-14.399832-31.999627-31.999627-31.999627s-31.999627 14.399832-31.999627 31.999627v63.999254zM640.392536 912.001306c0 17.599795 14.399832 31.999627 31.999627 31.999627s31.999627-14.399832 31.999627-31.999627v-63.999254c0-17.599795-14.399832-31.999627-31.999627-31.999627s-31.999627 14.399832-31.999627 31.999627v63.999254z" fill="#ffffff" p-id="3220"></path></svg>