<?xml version="1.0" standalone="no"?><!DOCTYPE svg PUBLIC "-//W3C//DTD SVG 1.1//EN" "http://www.w3.org/Graphics/SVG/1.1/DTD/svg11.dtd"><svg t="1546833514552" class="icon" style="" viewBox="0 0 1024 1024" version="1.1" xmlns="http://www.w3.org/2000/svg" p-id="1101" xmlns:xlink="http://www.w3.org/1999/xlink" width="200" height="200"><defs><style type="text/css"></style></defs><path d="M960 512c0-249.6-198.4-448-448-448S64 262.4 64 512s198.4 448 448 448 448-198.4 448-448zM691.2 736L512 556.8 332.8 736c-12.8 12.8-32 12.8-44.8 0-12.8-12.8-12.8-32 0-44.8L467.2 512 288 332.8c-12.8-12.8-12.8-32 0-44.8 12.8-12.8 32-12.8 44.8 0L512 467.2 691.2 288c12.8-12.8 32-12.8 44.8 0 12.8 12.8 12.8 32 0 44.8L556.8 512 736 691.2c12.8 12.8 12.8 32 0 44.8-12.8 12.8-32 12.8-44.8 0z" p-id="1102" fill="#ed6772"></path></svg>