<?xml version="1.0" standalone="no"?><!DOCTYPE svg PUBLIC "-//W3C//DTD SVG 1.1//EN" "http://www.w3.org/Graphics/SVG/1.1/DTD/svg11.dtd"><svg t="1546848202198" class="icon" style="" viewBox="0 0 1024 1024" version="1.1" xmlns="http://www.w3.org/2000/svg" p-id="6521" xmlns:xlink="http://www.w3.org/1999/xlink" width="200" height="200"><defs><style type="text/css"></style></defs><path d="M808.01792 901.12m-59.04384 0a2.883 2.883 0 1 0 118.08768 0 2.883 2.883 0 1 0-118.08768 0Z" p-id="6522" fill="#ffffff"></path><path d="M430.10048 842.07616c-32.54272 0-59.04384 26.39872-59.04384 59.00288 0 32.62464 26.50112 59.0848 59.04384 59.0848 32.58368 0 59.00288-26.46016 59.00288-59.0848C489.10336 868.47488 462.68416 842.07616 430.10048 842.07616z" p-id="6523" fill="#ffffff"></path><path d="M292.29056 640.9216l-58.18368-361.75872C196.95616 66.19136 16.09728 63.83616 14.29504 63.83616L14.1312 120.13568c5.50912 0.1024 135.5776 3.52256 164.31104 168.36608l57.87648 358.58432c2.9696 48.10752 36.18816 139.18208 140.86144 139.18208l553.2672 0 0-56.4224L377.18016 729.84576C300.9536 729.84576 293.2736 652.288 292.29056 640.9216z" p-id="6524" fill="#ffffff"></path><path d="M832.38912 674.16064 476.93824 674.16064c-87.552 0-127.97952-69.46816-137.13408-106.1888-0.47104-2.29376-26.33728-157.34784-43.47904-267.01824-6.26688-39.97696 0.22528-71.5776 19.31264-93.88032 17.42848-20.39808 43.8272-31.15008 76.32896-31.15008 14.2336 0 24.30976 2.1504 24.30976 2.1504 1.80224 0.12288 407.90016 50.09408 500.16256 50.09408 39.99744 0 68.97664 12.1856 86.15936 36.18816 25.41568 35.55328 11.30496 79.95392 9.60512 84.8896l-43.49952 205.4144C966.84032 561.50016 933.15072 674.16064 832.38912 674.16064zM391.9872 235.86816c-8.23296 0-23.22432 1.31072-30.78144 10.1376-6.98368 8.15104-8.99072 24.3712-5.65248 45.6704 17.12128 109.42464 42.9056 264.11008 42.9056 264.11008 1.1264 3.72736 17.408 58.42944 78.45888 58.42944l355.45088 0c56.17664 0 78.00832-73.40032 78.2336-74.1376l43.95008-206.78656c2.94912-9.70752 5.28384-25.84576-0.79872-34.18112-5.16096-7.08608-18.41152-10.97728-37.29408-10.97728-95.92832 0-492.9536-48.8448-509.80864-50.93376C403.6608 236.66688 398.70464 235.86816 391.9872 235.86816z" p-id="6525" fill="#ffffff"></path></svg>