<?xml version="1.0" standalone="no"?><!DOCTYPE svg PUBLIC "-//W3C//DTD SVG 1.1//EN" "http://www.w3.org/Graphics/SVG/1.1/DTD/svg11.dtd"><svg t="1546678940239" class="icon" style="" viewBox="0 0 1024 1024" version="1.1" xmlns="http://www.w3.org/2000/svg" p-id="4103" xmlns:xlink="http://www.w3.org/1999/xlink" width="200" height="200"><defs><style type="text/css"></style></defs><path d="M355.006 925.637c-6.624 6.594-15.76 10.673-25.849 10.673-20.235 0-36.638-16.403-36.638-36.638 0-10.147 4.125-19.33 10.788-25.964l342.134-376.336-342.192-376.305c-6.665-6.635-10.79-15.819-10.79-25.966 0-20.235 16.403-36.638 36.638-36.638 10.088 0 19.224 4.076 25.85 10.674l365.713 402.284c6.65 6.597 10.767 15.739 10.766 25.842 0 0.038 0 0.076 0 0.115 0 10.235-4.096 19.362-10.708 25.945l-365.714 402.286z" p-id="4104" fill="#ffffff"></path></svg>