<?xml version="1.0" standalone="no"?><!DOCTYPE svg PUBLIC "-//W3C//DTD SVG 1.1//EN" "http://www.w3.org/Graphics/SVG/1.1/DTD/svg11.dtd"><svg t="1546910455621" class="icon" style="" viewBox="0 0 1024 1024" version="1.1" xmlns="http://www.w3.org/2000/svg" p-id="9951" xmlns:xlink="http://www.w3.org/1999/xlink" width="200" height="200"><defs><style type="text/css"></style></defs><path d="M207.36 207.872c-28.16 3.584-56.32 27.136-65.536 54.272-6.144 16.896-116.224 496.128-116.736 504.832-1.024 25.088 13.312 43.52 36.864 48.128 8.704 2.048 288.256 2.048 297.472 0 26.624-5.12 51.712-26.112 60.928-51.712 3.584-9.728 117.248-498.176 117.248-506.368 1.536-23.04-12.288-41.984-34.304-48.64-5.12-1.024-284.16-2.048-295.936-0.512z" fill="#E60012" p-id="9952"></path><path d="M467.968 207.872c-28.16 3.584-56.32 27.136-65.536 54.272-5.632 16.896-116.224 496.128-116.224 504.832-1.024 25.088 13.312 43.52 36.864 48.128 8.704 2.048 288.256 2.048 297.472 0 26.624-5.12 51.712-26.112 60.928-51.712 3.584-9.728 117.248-498.176 117.248-506.368 1.536-23.04-12.288-41.984-34.304-48.64-5.632-1.024-284.672-2.048-296.448-0.512z" fill="#00508E" p-id="9953"></path><path d="M739.84 207.872c-28.16 3.584-56.32 27.136-65.536 54.272-5.632 16.896-116.224 496.128-116.224 504.832-1.024 25.088 13.312 43.52 36.864 48.128 8.704 2.048 216.576 2.048 225.792 0 26.624-5.12 51.712-26.112 60.928-51.712 3.584-9.728 117.248-498.176 117.248-506.368 1.536-23.04-12.288-41.984-34.304-48.64-5.12-1.536-238.592-2.56-250.368-1.024h25.6v0.512z" fill="#00908C" p-id="9954"></path><path d="M198.656 363.52c0 0.512-0.512 3.584-1.536 6.656-11.776 39.936-23.552 93.696-22.016 100.352 4.096 19.968 33.28 18.432 43.52-2.56 3.072-5.632 25.088-99.328 25.088-105.984 0-0.512 34.816 0 34.816 0.512 0 0 0 1.536-0.512 3.072s-6.144 23.04-12.288 48.64c-13.824 54.272-15.36 59.904-22.528 70.656-23.552 34.816-102.4 33.792-108.544-1.536-1.536-7.68 15.36-96.256 23.04-120.32 0-1.536 40.96-0.512 40.96 0.512zM721.92 363.52c23.552 5.12 30.72 24.064 19.968 52.224s-33.792 40.448-74.24 40.448c-12.288 0-11.264-2.048-18.944 36.352-1.536 7.168-3.072 13.824-3.072 14.848-0.512 2.56-36.864 2.56-36.352 0 30.72-131.584 33.28-142.848 33.28-143.872l0.512-1.536h36.864c29.184 0.512 37.376 0.512 41.984 1.536z m-315.904 50.688c5.12 1.024 8.704 5.12 8.704 8.704 0 12.8-26.112 21.504-35.84 11.776-9.216-9.728 10.24-24.576 27.136-20.48z m-90.624 9.728c0 1.024-0.512 3.072-0.512 4.608l-0.512 2.048 6.144-3.072c16.384-8.192 32.256-6.656 37.376 3.584 3.072 6.144 2.56 9.728-5.632 47.616-1.536 6.656-3.584 15.872-4.096 20.48-2.048 10.24-0.512 9.728-18.944 9.728-15.872 0-15.872 0-15.36-1.536 0-1.024 2.048-9.216 4.096-18.944 8.192-36.352 8.704-41.472 1.536-41.472-4.096 0-9.728 2.56-10.24 4.096-1.024 3.584-10.24 48.128-10.752 52.224l-1.024 4.608-15.872 1.024c-19.456 0.512-17.92 2.048-13.824-15.36 5.632-22.528 8.704-38.4 10.752-52.736 2.56-15.36 1.024-13.824 15.36-15.872 6.656-1.024 13.312-2.048 15.36-2.56 5.12-1.536 6.144-1.024 6.144 1.536z m243.2-0.512c0 1.024-0.512 3.072-0.512 4.608l-0.512 2.56 6.144-3.072c31.744-16.384 44.032-3.072 34.816 38.912-2.048 9.216-4.608 22.528-6.144 28.672-1.024 6.656-2.56 12.288-3.072 12.8-2.048 2.048-32.256 1.536-31.744 0 0-1.024 2.048-9.216 4.096-18.432 8.704-37.376 8.704-41.984 1.024-41.984-6.144 0-9.216 2.048-10.24 6.656-1.536 5.632-9.216 42.496-10.24 49.152l-1.024 5.632-15.872 0.512c-19.456 0.512-17.92 2.56-13.312-16.384 5.12-20.48 8.704-39.424 11.264-53.248 2.048-13.312 0.512-11.776 13.312-13.824 5.632-1.024 12.8-2.048 15.36-2.56 5.12-2.56 6.656-2.048 6.656 0z m310.784-0.512c2.048 31.232 2.56 40.448 2.56 40.96s4.608-7.68 9.728-17.92c10.24-20.48 8.192-18.432 19.456-19.968 3.072-0.512 9.216-1.536 13.824-2.56 11.264-2.048 11.264-3.072-1.536 19.456-17.408 30.208-41.472 72.704-50.176 88.064-26.112 47.616-26.112 47.616-48.128 48.128l-13.312 0.512 1.024-3.584c0.512-2.048 2.048-6.144 2.56-9.216l1.536-5.632h4.096c4.608 0 5.632-1.024 9.728-8.192 1.536-2.56 4.096-6.656 5.12-9.216 1.536-2.56 6.656-10.752 10.752-18.944l8.192-14.336-2.048-18.944c-2.56-22.016-5.632-48.128-7.168-55.808-1.024-7.168-1.024-7.168 8.192-8.192 4.096-0.512 10.752-2.048 14.336-2.56 9.728-3.072 10.752-3.072 11.264-2.048z m-386.048 0.512c39.424 7.168 25.6 75.776-17.408 85.504-29.184 6.656-49.152-4.608-49.152-27.136 0.512-39.424 29.696-65.024 66.56-58.368z m294.912 2.048c2.048 1.024 5.12 3.072 6.656 4.608 2.56 2.56 2.56 2.56 2.56 1.024 0.512-2.048 0-2.048 20.48-5.12 16.384-2.56 15.872-2.56 14.848 2.048-6.656 28.672-12.288 53.76-14.848 66.048-3.584 18.432-1.024 16.384-20.992 15.872h-16.896v-2.048c0-2.048-1.024-3.072-2.048-1.536-5.632 9.216-33.28 5.632-40.96-5.632-18.944-28.672 21.504-89.088 51.2-75.264zM410.624 440.32s0 2.56-0.512 4.608c-4.096 16.384-11.264 49.664-12.8 55.808l-1.536 7.68-16.896 0.512c-19.968 0.512-18.944 1.536-14.848-10.752 3.584-11.776 7.168-26.112 9.216-41.472 2.048-13.312 0-11.264 14.848-13.312 6.656-1.024 13.824-2.048 15.36-2.56 4.096-1.024 6.656-1.024 7.168-0.512z m89.6 105.984c0 0.512-1.024 2.56-2.56 5.12-1.024 2.56-2.56 4.608-2.56 4.608 30.208 0.512 31.232 0.512 30.72 2.048l-5.632 18.432H476.16l-2.56 2.048c-5.632 5.12-35.328 11.776-35.328 7.68l5.632-18.432h4.096c7.168 0 8.704-1.536 14.848-12.288l5.12-9.728c26.624-0.512 32.256 0 32.256 0.512z m67.072 0c0 0.512-0.512 3.072-1.536 6.144-1.024 2.56-1.536 5.12-1.536 5.632 0 0 2.56-1.024 5.632-3.584 11.264-7.68 20.992-9.216 49.664-9.216 11.264 0 20.992 0 21.504 0.512 0.512 1.024-16.384 56.32-18.944 61.44-3.584 6.656-7.168 10.24-12.8 12.8l-5.12 2.048-29.184 0.512-29.184 0.512-5.12 17.408c-10.24 33.28-10.24 30.72 4.608 29.184 11.776-1.024 11.264-2.048 7.68 10.24l-3.072 10.24h-14.848c-32.256 0.512-36.352-1.536-33.28-14.848 1.536-6.656 38.4-128.512 38.912-129.536 0.512-0.512 26.624-0.512 26.624 0.512z m134.656 0c0 0.512-0.512 2.048-1.024 4.096-1.536 5.12-1.536 5.12 5.12 1.536 8.704-4.608 29.184-6.144 71.168-6.144h13.312v6.144c0 7.168 0.512 7.68 6.656 8.704l4.608 0.512-2.56 9.216-2.56 9.216h-9.216c-23.552 0.512-27.136-2.048-27.648-15.872v-6.656l-1.536 4.608-1.536 5.12h-5.12c-2.56 0-5.12 0-5.12 0.512 0 0-25.088 83.456-28.672 95.232-0.512 1.024 0 1.536 3.072 1.536 4.608 0 4.608 0 3.072 4.096-1.536 4.608-1.536 4.608 3.584 4.608 3.584 0 5.632-0.512 8.192-2.048 3.584-2.048 3.584-1.536 19.968-24.576l6.656-9.728h-13.824c-16.896 0-15.36 1.024-12.288-9.216l2.56-8.192h33.792c3.072-10.752 4.096-13.824 4.096-14.336s-7.168-0.512-16.384-0.512h-16.384l2.56-9.216 2.56-9.216h46.08c25.088 0 46.08 0 46.08 0.512s-1.024 4.608-2.56 9.216l-2.56 8.704-15.36 0.512-15.36 0.512c-2.56 7.68-3.584 11.264-4.096 12.288l-0.512 2.048h14.848c17.408 0 16.384-1.024 12.8 9.216l-2.56 8.192h-33.792l-2.56 3.072-2.56 3.072h13.312l2.048 12.288c2.048 13.824 2.048 13.824 8.704 13.824 5.12 0 5.12-1.024 1.536 11.264l-3.072 10.24h-9.728c-16.896 0-19.968-2.56-23.04-19.968l-1.536-11.264-6.144 8.192c-16.896 23.04-17.92 23.552-39.424 23.552-13.824 0-13.824 0-11.776-4.096 0.512-2.048 0.512-2.048-3.584-2.048s-4.096 0-5.12 3.072l-0.512 3.072h-28.672l0.512-1.536c1.536-5.12 4.096-4.608-27.136-4.608-27.136 0-28.672 0-28.16-1.536l2.56-9.216c3.072-9.216 2.56-9.216 5.632-9.216 2.56 0 2.56 0 3.584-3.584 24.064-80.384 31.744-105.984 32.768-109.568l2.048-6.656h14.336c9.216 0 15.872 0.512 15.872 1.024z m-181.76 44.032l-5.632 17.92h-30.72c-3.072 10.24-4.096 13.312-4.608 14.336-0.512 1.536 0.512 1.536 15.36 1.536 8.704 0 15.872 0.512 15.872 0.512 0 0.512-0.512 1.536-1.024 3.072-0.512 1.024-1.536 5.12-2.56 9.216l-2.048 6.656h-31.744l-3.584 12.288c-5.12 17.408-4.608 17.92 14.848 15.36 8.192-1.024 7.68-2.048 4.096 10.24l-3.072 10.24h-21.504c-33.792 0-34.304-1.024-25.088-30.208 2.56-9.216 5.12-16.896 5.12-16.896s-3.584-0.512-8.704-0.512c-4.608 0-8.704 0-8.704-0.512 3.584-12.8 5.12-16.896 5.12-17.92 0.512-1.024 1.536-1.536 9.216-1.536h8.704l4.096-15.872H445.44c-6.144 0-8.192 0-8.192-1.024s4.608-15.872 5.12-17.408c1.024-1.024 78.336-0.512 77.824 0.512z m99.328 36.864c0 1.024-1.024 4.096-1.536 6.656-3.072 14.336-7.168 17.408-23.552 18.432-5.632 0.512-10.752 1.024-10.752 1.024-1.024 1.536-1.024 13.824 0 15.872l1.536 2.048 10.24-0.512c5.632-0.512 10.24-0.512 10.24-0.512 0 1.024-5.632 18.944-6.144 19.456-1.024 1.024-32.256 0.512-36.352-1.024-6.144-2.048-6.144-1.536-5.632-33.792l0.512-28.16h26.112v10.752h5.12c5.632 0 6.144-0.512 8.704-7.68l1.536-4.096h10.24c9.216 0.512 10.24 0.512 9.728 1.536z m48.128-219.136l-5.632 24.576h7.68c39.424 1.024 55.808-44.544 17.408-47.616-6.144-0.512-11.776-1.024-12.288-1.024-1.536 0-1.536 1.536-7.168 24.064z m-203.776 34.816c-9.728 4.096-18.944 40.96-11.264 46.592 5.632 4.608 13.824-3.072 17.92-15.872 6.656-23.552 4.608-34.816-6.656-30.72z m305.152 2.56c-10.24 5.12-17.92 41.472-10.24 45.568 10.24 5.632 23.552-13.824 23.552-34.816 0-9.728-5.632-14.336-13.312-10.752z m-206.848 121.856l-2.56 9.216c-1.536 4.608-2.56 8.704-3.072 9.216 0 0.512 2.56-0.512 6.144-2.56 10.24-5.12 13.312-6.144 28.16-6.656l12.8-0.512c2.048-6.144 2.56-8.704 2.56-9.216 0.512-0.512-43.52-0.512-44.032 0.512z m-8.704 29.696l-2.048 8.192 44.032-0.512 2.56-8.192c-34.816 0-44.544 0-44.544 0.512z m139.264-18.432c-2.048 6.656-3.584 11.776-3.072 11.776l6.144-2.048c3.072-1.024 8.704-2.56 11.776-3.072s5.632-1.024 6.144-1.024c0 0 5.12-15.872 5.12-16.384 0 0-5.12-0.512-11.264-0.512H696.32l-3.584 11.264z m-8.192 26.112c0 0.512-2.048 5.632-3.584 11.776-2.048 6.144-3.584 11.776-3.584 11.776 0 0.512 2.56-0.512 6.144-2.048 3.584-1.536 8.704-3.072 11.776-3.584 6.656-1.024 7.168-1.536 7.68-4.096 0.512-1.024 1.536-5.12 2.56-8.192l2.048-6.144H696.32c-6.144 0-11.776 0-11.776 0.512z m-17.92 58.88l22.528 0.512c4.608-15.36 6.144-20.48 6.144-20.992l-22.528-1.024-6.144 21.504z" fill="#FFFFFF" p-id="9955"></path></svg>